<svg viewBox="0 0 10 10" xmlns="http://www.w3.org/2000/svg">
<path d="M8.71224 9.77296L0.226957 1.28768C-0.062957 0.997764 -0.0629569 0.516932 0.226957 0.227018C0.516871 -0.0628959 0.997703 -0.0628959 1.28762 0.227018L9.7729 8.7123C10.0628 9.00221 10.0628 9.48304 9.7729 9.77296C9.48298 10.0629 9.00215 10.0629 8.71224 9.77296Z" fill="#292D32"/>
<path d="M0.226958 9.77296C-0.0629563 9.48304 -0.0629561 9.00221 0.226958 8.7123L8.71224 0.227018C9.00215 -0.0628959 9.48298 -0.0628959 9.7729 0.227018C10.0628 0.516932 10.0628 0.997764 9.7729 1.28768L1.28762 9.77296C0.997704 10.0629 0.516871 10.0629 0.226958 9.77296Z" fill="#292D32"/>
</svg>
