<svg viewBox="0 0 18 18" fill="none" xmlns="http://www.w3.org/2000/svg">
<path d="M12.4917 0.666656H5.50832C2.47499 0.666656 0.666656 2.47499 0.666656 5.50832V12.4833C0.666656 15.525 2.47499 17.3333 5.50832 17.3333H12.4833C15.5167 17.3333 17.325 15.525 17.325 12.4917V5.50832C17.3333 2.47499 15.525 0.666656 12.4917 0.666656ZM11.325 9.44166L8.38332 12.3833C8.25832 12.5083 8.09999 12.5667 7.94166 12.5667C7.78332 12.5667 7.62499 12.5083 7.49999 12.3833C7.25832 12.1417 7.25832 11.7417 7.49999 11.5L9.99999 8.99999L7.49999 6.49999C7.25832 6.25832 7.25832 5.85832 7.49999 5.61666C7.74166 5.37499 8.14166 5.37499 8.38332 5.61666L11.325 8.55832C11.575 8.79999 11.575 9.19999 11.325 9.44166Z" fill="white"/>
</svg>
