<svg viewBox="0 0 20 20" fill="none" xmlns="http://www.w3.org/2000/svg">
<path d="M19.53 13.93C19.37 13.66 18.92 13.24 17.8 13.44C17.18 13.55 16.55 13.6 15.92 13.57C13.59 13.47 11.48 12.4 10.01 10.75C8.71 9.29999 7.91 7.40999 7.9 5.36999C7.9 4.22999 8.12 3.12999 8.57 2.08999C9.01 1.07999 8.7 0.549994 8.48 0.329994C8.25 0.0999944 7.71 -0.220006 6.65 0.219994C2.56 1.93999 0.0299981 6.03999 0.329998 10.43C0.629998 14.56 3.53 18.09 7.37 19.42C8.29 19.74 9.26 19.93 10.26 19.97C10.42 19.98 10.58 19.99 10.74 19.99C14.09 19.99 17.23 18.41 19.21 15.72C19.88 14.79 19.7 14.2 19.53 13.93Z" fill="#596780"/>
</svg>
